<svg viewBox="0 0 1000 780" xmlns="http://www.w3.org/2000/svg" font-family="'Courier New', monospace">
  <defs>
    <linearGradient id="bg2" x1="0" y1="0" x2="0" y2="1">
      <stop offset="0%" stop-color="#0a0e1a"/>
      <stop offset="100%" stop-color="#0d1220"/>
    </linearGradient>
    <linearGradient id="planeGrad" x1="0" y1="0" x2="0" y2="1">
      <stop offset="0%" stop-color="#001a0e" stop-opacity="0.9"/>
      <stop offset="100%" stop-color="#00120a" stop-opacity="0.9"/>
    </linearGradient>
    <linearGradient id="dataGrad" x1="0" y1="0" x2="0" y2="1">
      <stop offset="0%" stop-color="#0a0e20" stop-opacity="0.9"/>
      <stop offset="100%" stop-color="#080c1a" stop-opacity="0.9"/>
    </linearGradient>
    <filter id="glow2">
      <feGaussianBlur stdDeviation="2.5" result="coloredBlur"/>
      <feMerge><feMergeNode in="coloredBlur"/><feMergeNode in="SourceGraphic"/></feMerge>
    </filter>
    <marker id="arr-green" markerWidth="8" markerHeight="8" refX="6" refY="3" orient="auto">
      <path d="M0,0 L0,6 L8,3 z" fill="#00d4aa"/>
    </marker>
    <marker id="arr-blue" markerWidth="8" markerHeight="8" refX="6" refY="3" orient="auto">
      <path d="M0,0 L0,6 L8,3 z" fill="#3b82f6"/>
    </marker>
    <marker id="arr-red2" markerWidth="8" markerHeight="8" refX="6" refY="3" orient="auto">
      <path d="M0,0 L0,6 L8,3 z" fill="#ef4444"/>
    </marker>
    <marker id="arr-purple" markerWidth="8" markerHeight="8" refX="6" refY="3" orient="auto">
      <path d="M0,0 L0,6 L8,3 z" fill="#a78bfa"/>
    </marker>
    <pattern id="grid2" width="24" height="24" patternUnits="userSpaceOnUse">
      <path d="M 24 0 L 0 0 0 24" fill="none" stroke="#ffffff" stroke-opacity="0.02" stroke-width="0.5"/>
    </pattern>
  </defs>

  <rect width="1000" height="780" fill="url(#bg2)"/>
  <rect width="1000" height="780" fill="url(#grid2)"/>
  <rect x="1" y="1" width="998" height="778" fill="none" stroke="#00d4aa" stroke-opacity="0.12" stroke-width="1"/>

  <!-- Header -->
  <rect x="0" y="0" width="1000" height="56" fill="#00d4aa" fill-opacity="0.06"/>
  <line x1="0" y1="56" x2="1000" y2="56" stroke="#00d4aa" stroke-opacity="0.35" stroke-width="1"/>
  <text x="32" y="22" fill="#00d4aa" font-size="10" font-weight="bold" opacity="0.6" letter-spacing="3">SYSTEM ARCHITECTURE</text>
  <text x="32" y="42" fill="#ffffff" font-size="16" font-weight="bold" letter-spacing="1">CONTROL INSERTION ARCHITECTURE</text>
  <text x="920" y="35" fill="#00d4aa" font-size="9" opacity="0.5" text-anchor="middle">v2.1 / PROD</text>

  <!-- =========== CONTROL PLANE BAND =========== -->
  <rect x="20" y="70" width="960" height="300" rx="6" fill="url(#planeGrad)" stroke="#00d4aa" stroke-width="1.5" stroke-opacity="0.6"/>
  <text x="38" y="92" fill="#00d4aa" font-size="9" font-weight="bold" letter-spacing="4" opacity="0.8">CONTROL PLANE</text>
  <line x1="38" y1="96" x2="962" y2="96" stroke="#00d4aa" stroke-opacity="0.2" stroke-width="0.5"/>

  <!-- CP Boxes in control plane — horizontal -->
  <!-- CP-1 -->
  <rect x="40" y="106" width="118" height="240" rx="4" fill="#0a1a10" stroke="#00d4aa" stroke-width="1.2"/>
  <rect x="40" y="106" width="118" height="6" rx="2" fill="#00d4aa"/>
  <text x="99" y="128" fill="#00d4aa" font-size="8" font-weight="bold" text-anchor="middle" letter-spacing="1">CP-1</text>
  <text x="99" y="148" fill="#ffffff" font-size="9" font-weight="bold" text-anchor="middle">INPUT</text>
  <text x="99" y="161" fill="#ffffff" font-size="9" font-weight="bold" text-anchor="middle">GUARDRAIL</text>
  <line x1="55" y1="175" x2="143" y2="175" stroke="#1f2937" stroke-width="0.5"/>
  <text x="99" y="192" fill="#4b5563" font-size="7.5" text-anchor="middle">Schema</text>
  <text x="99" y="205" fill="#4b5563" font-size="7.5" text-anchor="middle">Injection Det.</text>
  <text x="99" y="218" fill="#4b5563" font-size="7.5" text-anchor="middle">PII Classifier</text>
  <text x="99" y="231" fill="#4b5563" font-size="7.5" text-anchor="middle">Rate Limiter</text>
  <text x="99" y="244" fill="#4b5563" font-size="7.5" text-anchor="middle">Auth Verify</text>
  <!-- risk badge -->
  <rect x="55" y="292" width="88" height="18" rx="3" fill="#1a0a0a" stroke="#ef4444" stroke-width="0.8"/>
  <text x="99" y="304" fill="#ef4444" font-size="7" text-anchor="middle" font-weight="bold">RISK SCORE ×1</text>
  <!-- telemetry dot -->
  <circle cx="140" cy="112" r="4" fill="#00d4aa" opacity="0.8" filter="url(#glow2)"/>

  <!-- CP-2 -->
  <rect x="172" y="106" width="118" height="240" rx="4" fill="#0a1a10" stroke="#00d4aa" stroke-width="1.2"/>
  <rect x="172" y="106" width="118" height="6" rx="2" fill="#00d4aa"/>
  <text x="231" y="128" fill="#00d4aa" font-size="8" font-weight="bold" text-anchor="middle" letter-spacing="1">CP-2</text>
  <text x="231" y="148" fill="#ffffff" font-size="9" font-weight="bold" text-anchor="middle">CONTEXT</text>
  <text x="231" y="161" fill="#ffffff" font-size="9" font-weight="bold" text-anchor="middle">TRUST SCORE</text>
  <line x1="187" y1="175" x2="275" y2="175" stroke="#1f2937" stroke-width="0.5"/>
  <text x="231" y="192" fill="#4b5563" font-size="7.5" text-anchor="middle">Provenance</text>
  <text x="231" y="205" fill="#4b5563" font-size="7.5" text-anchor="middle">Chunk Scoring</text>
  <text x="231" y="218" fill="#4b5563" font-size="7.5" text-anchor="middle">Anomaly Det.</text>
  <text x="231" y="231" fill="#4b5563" font-size="7.5" text-anchor="middle">RAG Sandbox</text>
  <text x="231" y="244" fill="#4b5563" font-size="7.5" text-anchor="middle">Allow-list Check</text>
  <rect x="187" y="292" width="88" height="18" rx="3" fill="#1a0a0a" stroke="#ef4444" stroke-width="0.8"/>
  <text x="231" y="304" fill="#ef4444" font-size="7" text-anchor="middle" font-weight="bold">RISK SCORE ×2</text>
  <circle cx="272" cy="112" r="4" fill="#00d4aa" opacity="0.8" filter="url(#glow2)"/>

  <!-- CP-3 -->
  <rect x="304" y="106" width="118" height="240" rx="4" fill="#0a1a10" stroke="#00d4aa" stroke-width="1.2"/>
  <rect x="304" y="106" width="118" height="6" rx="2" fill="#00d4aa"/>
  <text x="363" y="128" fill="#00d4aa" font-size="8" font-weight="bold" text-anchor="middle" letter-spacing="1">CP-3</text>
  <text x="363" y="148" fill="#ffffff" font-size="9" font-weight="bold" text-anchor="middle">POLICY</text>
  <text x="363" y="161" fill="#ffffff" font-size="9" font-weight="bold" text-anchor="middle">INJECTION</text>
  <line x1="319" y1="175" x2="407" y2="175" stroke="#1f2937" stroke-width="0.5"/>
  <text x="363" y="192" fill="#4b5563" font-size="7.5" text-anchor="middle">Prompt Assembly</text>
  <text x="363" y="205" fill="#4b5563" font-size="7.5" text-anchor="middle">Constraint Inj.</text>
  <text x="363" y="218" fill="#4b5563" font-size="7.5" text-anchor="middle">Scope Enforce.</text>
  <text x="363" y="231" fill="#4b5563" font-size="7.5" text-anchor="middle">Role Mapping</text>
  <text x="363" y="244" fill="#4b5563" font-size="7.5" text-anchor="middle">Template Hash</text>
  <rect x="319" y="292" width="88" height="18" rx="3" fill="#1a0a0a" stroke="#f59e0b" stroke-width="0.8"/>
  <text x="363" y="304" fill="#f59e0b" font-size="7" text-anchor="middle" font-weight="bold">RISK SCORE ×1.5</text>
  <circle cx="404" cy="112" r="4" fill="#00d4aa" opacity="0.8" filter="url(#glow2)"/>

  <!-- CP-5 -->
  <rect x="436" y="106" width="118" height="240" rx="4" fill="#0a1a10" stroke="#00d4aa" stroke-width="1.2"/>
  <rect x="436" y="106" width="118" height="6" rx="2" fill="#00d4aa"/>
  <text x="495" y="128" fill="#00d4aa" font-size="8" font-weight="bold" text-anchor="middle" letter-spacing="1">CP-5</text>
  <text x="495" y="148" fill="#ffffff" font-size="9" font-weight="bold" text-anchor="middle">TOOL</text>
  <text x="495" y="161" fill="#ffffff" font-size="9" font-weight="bold" text-anchor="middle">PERMISSION GATE</text>
  <line x1="451" y1="175" x2="539" y2="175" stroke="#1f2937" stroke-width="0.5"/>
  <text x="495" y="192" fill="#4b5563" font-size="7.5" text-anchor="middle">Perm. Matrix</text>
  <text x="495" y="205" fill="#4b5563" font-size="7.5" text-anchor="middle">Scoped Creds</text>
  <text x="495" y="218" fill="#4b5563" font-size="7.5" text-anchor="middle">Param Validate</text>
  <text x="495" y="231" fill="#4b5563" font-size="7.5" text-anchor="middle">Human Gate</text>
  <text x="495" y="244" fill="#4b5563" font-size="7.5" text-anchor="middle">Action Audit</text>
  <rect x="451" y="292" width="88" height="18" rx="3" fill="#1a0a0a" stroke="#ef4444" stroke-width="0.8"/>
  <text x="495" y="304" fill="#ef4444" font-size="7" text-anchor="middle" font-weight="bold">RISK SCORE ×4 ⚠</text>
  <circle cx="536" cy="112" r="4" fill="#00d4aa" opacity="0.8" filter="url(#glow2)"/>

  <!-- CP-6 -->
  <rect x="568" y="106" width="118" height="240" rx="4" fill="#0a1a10" stroke="#00d4aa" stroke-width="1.2"/>
  <rect x="568" y="106" width="118" height="6" rx="2" fill="#00d4aa"/>
  <text x="627" y="128" fill="#00d4aa" font-size="8" font-weight="bold" text-anchor="middle" letter-spacing="1">CP-6</text>
  <text x="627" y="148" fill="#ffffff" font-size="9" font-weight="bold" text-anchor="middle">OUTPUT</text>
  <text x="627" y="161" fill="#ffffff" font-size="9" font-weight="bold" text-anchor="middle">SANITIZATION</text>
  <line x1="583" y1="175" x2="671" y2="175" stroke="#1f2937" stroke-width="0.5"/>
  <text x="627" y="192" fill="#4b5563" font-size="7.5" text-anchor="middle">PII Redaction</text>
  <text x="627" y="205" fill="#4b5563" font-size="7.5" text-anchor="middle">Exfil. Detect.</text>
  <text x="627" y="218" fill="#4b5563" font-size="7.5" text-anchor="middle">Schema Enforce.</text>
  <text x="627" y="231" fill="#4b5563" font-size="7.5" text-anchor="middle">Classification</text>
  <text x="627" y="244" fill="#4b5563" font-size="7.5" text-anchor="middle">Canary Check</text>
  <rect x="583" y="292" width="88" height="18" rx="3" fill="#1a0a0a" stroke="#ef4444" stroke-width="0.8"/>
  <text x="627" y="304" fill="#ef4444" font-size="7" text-anchor="middle" font-weight="bold">RISK SCORE ×2</text>
  <circle cx="668" cy="112" r="4" fill="#00d4aa" opacity="0.8" filter="url(#glow2)"/>

  <!-- CP-7 -->
  <rect x="700" y="106" width="118" height="240" rx="4" fill="#0a1a10" stroke="#00d4aa" stroke-width="1.2"/>
  <rect x="700" y="106" width="118" height="6" rx="2" fill="#00d4aa"/>
  <text x="759" y="128" fill="#00d4aa" font-size="8" font-weight="bold" text-anchor="middle" letter-spacing="1">CP-7</text>
  <text x="759" y="148" fill="#ffffff" font-size="9" font-weight="bold" text-anchor="middle">TELEMETRY</text>
  <text x="759" y="161" fill="#ffffff" font-size="9" font-weight="bold" text-anchor="middle">ENGINE</text>
  <line x1="715" y1="175" x2="803" y2="175" stroke="#1f2937" stroke-width="0.5"/>
  <text x="759" y="192" fill="#4b5563" font-size="7.5" text-anchor="middle">Full Capture</text>
  <text x="759" y="205" fill="#4b5563" font-size="7.5" text-anchor="middle">Risk Aggregation</text>
  <text x="759" y="218" fill="#4b5563" font-size="7.5" text-anchor="middle">Anomaly Correl.</text>
  <text x="759" y="231" fill="#4b5563" font-size="7.5" text-anchor="middle">Immutable Log</text>
  <text x="759" y="244" fill="#4b5563" font-size="7.5" text-anchor="middle">Alert Routing</text>
  <rect x="715" y="292" width="88" height="18" rx="3" fill="#0a1020" stroke="#3b82f6" stroke-width="0.8"/>
  <text x="759" y="304" fill="#3b82f6" font-size="7" text-anchor="middle" font-weight="bold">COMPOSITE SCORE</text>
  <circle cx="800" cy="112" r="4" fill="#00d4aa" opacity="0.8" filter="url(#glow2)"/>

  <!-- CP-8 -->
  <rect x="832" y="106" width="118" height="240" rx="4" fill="#0f1d2e" stroke="#3b82f6" stroke-width="1.2"/>
  <rect x="832" y="106" width="118" height="6" rx="2" fill="#3b82f6"/>
  <text x="891" y="128" fill="#60a5fa" font-size="8" font-weight="bold" text-anchor="middle" letter-spacing="1">CP-8</text>
  <text x="891" y="148" fill="#ffffff" font-size="9" font-weight="bold" text-anchor="middle">HUMAN</text>
  <text x="891" y="161" fill="#ffffff" font-size="9" font-weight="bold" text-anchor="middle">FEEDBACK</text>
  <line x1="847" y1="175" x2="935" y2="175" stroke="#1f2937" stroke-width="0.5"/>
  <text x="891" y="192" fill="#4b5563" font-size="7.5" text-anchor="middle">Review Queue</text>
  <text x="891" y="205" fill="#4b5563" font-size="7.5" text-anchor="middle">Override Capture</text>
  <text x="891" y="218" fill="#4b5563" font-size="7.5" text-anchor="middle">Label Audit</text>
  <text x="891" y="231" fill="#4b5563" font-size="7.5" text-anchor="middle">Dataset Curation</text>
  <text x="891" y="244" fill="#4b5563" font-size="7.5" text-anchor="middle">Regression Test</text>
  <rect x="847" y="292" width="88" height="18" rx="3" fill="#0a1020" stroke="#3b82f6" stroke-width="0.8"/>
  <text x="891" y="304" fill="#3b82f6" font-size="7" text-anchor="middle" font-weight="bold">HUMAN OVERRIDE</text>

  <!-- Telemetry bus line (horizontal through CP badges) -->
  <line x1="140" y1="112" x2="272" y2="112" stroke="#00d4aa" stroke-width="1.5" stroke-dasharray="4,2" opacity="0.5"/>
  <line x1="272" y1="112" x2="404" y2="112" stroke="#00d4aa" stroke-width="1.5" stroke-dasharray="4,2" opacity="0.5"/>
  <line x1="404" y1="112" x2="536" y2="112" stroke="#00d4aa" stroke-width="1.5" stroke-dasharray="4,2" opacity="0.5"/>
  <line x1="536" y1="112" x2="668" y2="112" stroke="#00d4aa" stroke-width="1.5" stroke-dasharray="4,2" opacity="0.5"/>
  <line x1="668" y1="112" x2="800" y2="112" stroke="#00d4aa" stroke-width="1.5" stroke-dasharray="4,2" opacity="0.5"/>
  <text x="490" y="78" fill="#00d4aa" font-size="8" text-anchor="middle" opacity="0.5" letter-spacing="2">TELEMETRY BUS</text>
  <line x1="200" y1="80" x2="780" y2="80" stroke="#00d4aa" stroke-width="0.5" stroke-dasharray="3,4" opacity="0.3"/>

  <!-- =========== DATA PLANE BAND =========== -->
  <rect x="20" y="385" width="960" height="200" rx="6" fill="url(#dataGrad)" stroke="#3b82f6" stroke-width="1" stroke-opacity="0.4"/>
  <text x="38" y="408" fill="#3b82f6" font-size="9" font-weight="bold" letter-spacing="4" opacity="0.7">DATA PLANE</text>
  <line x1="38" y1="412" x2="962" y2="412" stroke="#3b82f6" stroke-opacity="0.15" stroke-width="0.5"/>

  <!-- Data plane components -->
  <!-- User Input -->
  <rect x="40" y="420" width="120" height="50" rx="4" fill="#111827" stroke="#4b5563" stroke-width="1"/>
  <text x="100" y="442" fill="#9ca3af" font-size="8" text-anchor="middle" font-weight="bold">USER INPUT</text>
  <text x="100" y="456" fill="#6b7280" font-size="7" text-anchor="middle">API · Prompt · File</text>

  <!-- RAG Store -->
  <rect x="195" y="420" width="120" height="50" rx="4" fill="#111827" stroke="#4b5563" stroke-width="1"/>
  <text x="255" y="442" fill="#9ca3af" font-size="8" text-anchor="middle" font-weight="bold">RAG / VECTOR DB</text>
  <text x="255" y="456" fill="#6b7280" font-size="7" text-anchor="middle">Embeddings · Chunks</text>

  <!-- Model -->
  <rect x="350" y="420" width="120" height="50" rx="4" fill="#1e1b4b" stroke="#7c6af0" stroke-width="1.2"/>
  <text x="410" y="442" fill="#a78bfa" font-size="8" text-anchor="middle" font-weight="bold">LLM ENGINE</text>
  <text x="410" y="456" fill="#7c6af0" font-size="7" text-anchor="middle">Inference · Sampling</text>

  <!-- Tool Gateway -->
  <rect x="505" y="420" width="120" height="50" rx="4" fill="#111827" stroke="#4b5563" stroke-width="1"/>
  <text x="565" y="442" fill="#9ca3af" font-size="8" text-anchor="middle" font-weight="bold">TOOL GATEWAY</text>
  <text x="565" y="456" fill="#6b7280" font-size="7" text-anchor="middle">Plugins · Functions</text>

  <!-- Output -->
  <rect x="660" y="420" width="120" height="50" rx="4" fill="#111827" stroke="#4b5563" stroke-width="1"/>
  <text x="720" y="442" fill="#9ca3af" font-size="8" text-anchor="middle" font-weight="bold">OUTPUT SURFACE</text>
  <text x="720" y="456" fill="#6b7280" font-size="7" text-anchor="middle">User · API · File</text>

  <!-- Log Store -->
  <rect x="815" y="420" width="120" height="50" rx="4" fill="#111827" stroke="#4b5563" stroke-width="1"/>
  <text x="875" y="442" fill="#9ca3af" font-size="8" text-anchor="middle" font-weight="bold">LOG STORE</text>
  <text x="875" y="456" fill="#6b7280" font-size="7" text-anchor="middle">Immutable · Audit</text>

  <!-- Data plane arrows (horizontal) -->
  <line x1="160" y1="445" x2="193" y2="445" stroke="#374151" stroke-width="1.5" marker-end="url(#arr-blue)"/>
  <line x1="315" y1="445" x2="348" y2="445" stroke="#374151" stroke-width="1.5" marker-end="url(#arr-blue)"/>
  <line x1="470" y1="445" x2="503" y2="445" stroke="#374151" stroke-width="1.5" marker-end="url(#arr-blue)"/>
  <line x1="625" y1="445" x2="658" y2="445" stroke="#374151" stroke-width="1.5" marker-end="url(#arr-blue)"/>
  <line x1="780" y1="445" x2="813" y2="445" stroke="#374151" stroke-width="1.5" marker-end="url(#arr-blue)"/>

  <!-- Control Plane → Data Plane vertical connectors -->
  <line x1="99" y1="346" x2="99" y2="420" stroke="#00d4aa" stroke-width="1.5" stroke-dasharray="3,3" marker-end="url(#arr-green)"/>
  <line x1="231" y1="346" x2="255" y2="420" stroke="#00d4aa" stroke-width="1.5" stroke-dasharray="3,3" marker-end="url(#arr-green)"/>
  <line x1="363" y1="346" x2="410" y2="420" stroke="#00d4aa" stroke-width="1.5" stroke-dasharray="3,3" marker-end="url(#arr-green)"/>
  <line x1="495" y1="346" x2="565" y2="420" stroke="#00d4aa" stroke-width="1.5" stroke-dasharray="3,3" marker-end="url(#arr-green)"/>
  <line x1="627" y1="346" x2="720" y2="420" stroke="#00d4aa" stroke-width="1.5" stroke-dasharray="3,3" marker-end="url(#arr-green)"/>
  <line x1="759" y1="346" x2="875" y2="420" stroke="#00d4aa" stroke-width="1.5" stroke-dasharray="3,3" marker-end="url(#arr-green)"/>

  <!-- ESCALATION PATH -->
  <rect x="20" y="600" width="960" height="60" rx="4" fill="#1a0000" stroke="#ef4444" stroke-width="1" stroke-opacity="0.5"/>
  <text x="38" y="625" fill="#ef4444" font-size="9" font-weight="bold" letter-spacing="3">ESCALATION PATH  —  TRIGGERED WHEN: Risk_session &gt; Risk_budget</text>
  <text x="38" y="645" fill="#6b7280" font-size="8">route_to_human_review()  →  suspend_tool_permissions()  →  flag_immutable_audit()  →  notify_oncall()</text>
  <!-- arrows pointing down to escalation from CP-7 -->
  <line x1="759" y1="585" x2="759" y2="598" stroke="#ef4444" stroke-width="1.5" stroke-dasharray="3,2" marker-end="url(#arr-red2)"/>

  <!-- LEGEND -->
  <rect x="20" y="678" width="960" height="86" rx="4" fill="#0d1117" stroke="#1f2937" stroke-width="1"/>
  <text x="36" y="698" fill="#6b7280" font-size="8" font-weight="bold" letter-spacing="3">LEGEND</text>
  <line x1="36" y1="712" x2="70" y2="712" stroke="#00d4aa" stroke-width="1.5" stroke-dasharray="3,3" marker-end="url(#arr-green)"/>
  <text x="78" y="716" fill="#9ca3af" font-size="8">Control Plane → Data Plane enforcement insertion</text>
  <line x1="36" y1="730" x2="70" y2="730" stroke="#3b82f6" stroke-width="1.5" marker-end="url(#arr-blue)"/>
  <text x="78" y="734" fill="#9ca3af" font-size="8">Data flow (request path)</text>
  <line x1="36" y1="748" x2="70" y2="748" stroke="#00d4aa" stroke-width="1.5" stroke-dasharray="4,2" opacity="0.7"/>
  <circle cx="40" cy="748" r="3" fill="#00d4aa" opacity="0.8"/>
  <circle cx="66" cy="748" r="3" fill="#00d4aa" opacity="0.8"/>
  <text x="78" y="752" fill="#9ca3af" font-size="8">Telemetry bus — real-time score propagation across CP nodes</text>
  <rect x="380" y="706" width="10" height="10" rx="2" fill="#1a0000" stroke="#ef4444" stroke-width="0.8"/>
  <text x="396" y="716" fill="#9ca3af" font-size="8">Escalation trigger zone</text>
  <rect x="380" y="724" width="10" height="10" rx="2" fill="#1e1b4b" stroke="#7c6af0" stroke-width="0.8"/>
  <text x="396" y="734" fill="#9ca3af" font-size="8">Inference engine (non-deterministic)</text>
  <rect x="380" y="742" width="10" height="10" rx="2" fill="#0f1d2e" stroke="#3b82f6" stroke-width="0.8"/>
  <text x="396" y="752" fill="#9ca3af" font-size="8">Human-in-the-loop node</text>
  <text x="700" y="716" fill="#4b5563" font-size="8">Each CP-N operates independently.</text>
  <text x="700" y="730" fill="#4b5563" font-size="8">Control plane enforces governance OVER</text>
  <text x="700" y="744" fill="#4b5563" font-size="8">data plane — not within it.</text>

  <!-- Footer -->
  <line x1="0" y1="764" x2="1000" y2="764" stroke="#00d4aa" stroke-opacity="0.1" stroke-width="1"/>
  <text x="32" y="776" fill="#374151" font-size="8">AI GOVERNANCE FRAMEWORK · CONTROL INSERTION ARCHITECTURE</text>
  <text x="968" y="776" fill="#374151" font-size="8" text-anchor="end">fig. 2 of 3</text>
</svg>
